<svg class="main-svg" xmlns="http://www.w3.org/2000/svg" xmlns:xlink="http://www.w3.org/1999/xlink" width="700" height="500" style="" viewBox="0 0 700 500"><rect x="0" y="0" width="700" height="500" style="fill: rgb(255, 255, 255); fill-opacity: 1;"/><defs id="defs-005178"><g class="clips"><clipPath id="clip005178xyplot" class="plotclip"><rect width="540" height="320"/></clipPath><clipPath class="axesclip" id="clip005178x"><rect x="80" y="0" width="540" height="500"/></clipPath><clipPath class="axesclip" id="clip005178y"><rect x="0" y="100" width="700" height="320"/></clipPath><clipPath class="axesclip" id="clip005178xy"><rect x="80" y="100" width="540" height="320"/></clipPath></g><g class="gradients"/><g class="patterns"/></defs><g class="bglayer"><rect class="bg" x="80" y="100" width="540" height="320" style="fill: rgb(229, 236, 246); fill-opacity: 1; stroke-width: 0;"/></g><g class="layer-below"><g class="imagelayer"/><g class="shapelayer"/></g><g class="cartesianlayer"><g class="subplot xy"><g class="layer-subplot"><g class="shapelayer"/><g class="imagelayer"/></g><g class="minor-gridlayer"><g class="x"/><g class="y"/></g><g class="gridlayer"><g class="x"><path class="xgrid crisp" transform="translate(126.87,0)" d="M0,100v320" style="stroke: rgb(255, 255, 255); stroke-opacity: 1; stroke-width: 1px;"/><path class="xgrid crisp" transform="translate(197.31,0)" d="M0,100v320" style="stroke: rgb(255, 255, 255); stroke-opacity: 1; stroke-width: 1px;"/><path class="xgrid crisp" transform="translate(267.76,0)" d="M0,100v320" style="stroke: rgb(255, 255, 255); stroke-opacity: 1; stroke-width: 1px;"/><path class="xgrid crisp" transform="translate(338.21,0)" d="M0,100v320" style="stroke: rgb(255, 255, 255); stroke-opacity: 1; stroke-width: 1px;"/><path class="xgrid crisp" transform="translate(408.66,0)" d="M0,100v320" style="stroke: rgb(255, 255, 255); stroke-opacity: 1; stroke-width: 1px;"/><path class="xgrid crisp" transform="translate(479.1,0)" d="M0,100v320" style="stroke: rgb(255, 255, 255); stroke-opacity: 1; stroke-width: 1px;"/><path class="xgrid crisp" transform="translate(549.55,0)" d="M0,100v320" style="stroke: rgb(255, 255, 255); stroke-opacity: 1; stroke-width: 1px;"/></g><g class="y"><path class="ygrid crisp" transform="translate(0,344.25)" d="M80,0h540" style="stroke: rgb(255, 255, 255); stroke-opacity: 1; stroke-width: 1px;"/><path class="ygrid crisp" transform="translate(0,284.5)" d="M80,0h540" style="stroke: rgb(255, 255, 255); stroke-opacity: 1; stroke-width: 1px;"/><path class="ygrid crisp" transform="translate(0,224.75)" d="M80,0h540" style="stroke: rgb(255, 255, 255); stroke-opacity: 1; stroke-width: 1px;"/><path class="ygrid crisp" transform="translate(0,165)" d="M80,0h540" style="stroke: rgb(255, 255, 255); stroke-opacity: 1; stroke-width: 1px;"/><path class="ygrid crisp" transform="translate(0,105.24)" d="M80,0h540" style="stroke: rgb(255, 255, 255); stroke-opacity: 1; stroke-width: 1px;"/></g></g><g class="zerolinelayer"><path class="yzl zl crisp" transform="translate(0,404)" d="M80,0h540" style="stroke: rgb(255, 255, 255); stroke-opacity: 1; stroke-width: 2px;"/></g><path class="xlines-below"/><path class="ylines-below"/><g class="overlines-below"/><g class="xaxislayer-below"/><g class="yaxislayer-below"/><g class="overaxes-below"/><g class="plot" transform="translate(80,100)" clip-path="url(#clip005178xyplot)"><g class="scatterlayer mlayer"><g class="trace scatter traceed5adb" style="stroke-miterlimit: 2; opacity: 1;"><g class="fills"/><g class="errorbars"/><g class="lines"><path class="js-line" d="M0,304L0.29,304L0.39,301.01L0.49,260.38L0.78,304L1.08,277.71L1.17,289.06L1.66,304L1.86,280.1L1.96,289.66L2.05,304L2.15,271.73L2.25,142.67L3.13,280.1L3.23,281.29L3.42,157.61L3.82,293.84L3.91,281.29L4.01,293.24L4.4,304L4.6,238.87L4.79,249.63L4.89,304L5.48,157.61L5.67,195.25L5.77,274.12L5.87,249.63L5.97,304L6.46,263.97L6.56,304L6.75,304L6.85,300.41L7.04,304L7.14,275.32L7.63,304L7.83,295.04L7.93,266.95L8.61,263.97L8.71,304L8.81,301.01L8.9,275.32L9.3,304L9.49,289.06L9.59,301.01L9.98,298.02L10.37,304L10.47,304L10.66,304L10.76,299.82L10.86,281.29L11.06,304L11.45,304L11.55,304L11.94,304L12.03,287.27L12.13,285.48L12.23,296.83L12.33,260.38L12.92,304L13.01,274.12L13.11,223.93L13.21,211.98L13.31,276.51L13.4,268.15L13.5,286.67L13.6,253.21L14.19,301.61L14.29,266.95L14.38,266.95L14.68,304L15.17,285.48L15.26,302.21L15.56,280.1L15.75,289.66L15.85,294.44L15.95,255L16.14,304L16.54,296.83L16.63,304L16.83,293.84L16.93,229.31L17.71,304L17.81,304L18.49,220.95L18.59,274.12L18.69,304L19.57,236.48L19.67,277.71L20.06,302.8L20.16,289.06L20.25,258.59L20.84,304L20.94,238.87L21.33,302.21L21.72,272.93L21.82,253.21L22.01,241.26L22.11,304L22.6,295.63L22.7,304L23.09,249.63L23.38,302.21L23.48,304L24.17,281.29L24.27,304L24.56,269.34L24.75,281.29L24.85,293.24L24.95,301.61L25.05,296.83L25.15,247.83L25.24,246.04L25.34,293.84L25.44,249.63L25.54,304L26.03,299.22L26.12,301.61L26.22,298.02L26.32,262.17L27.1,304L27.2,304L27.4,304L27.49,283.68L27.59,285.48L27.69,276.51L27.79,302.8L27.89,304L27.98,223.93L28.28,304L28.57,198.84L28.77,263.97L28.86,253.21L29.65,304L29.74,274.12L30.04,231.7L30.33,281.29L30.43,280.1L30.53,270.54L30.63,266.95L30.72,280.1L30.82,296.23L31.02,256.8L31.6,271.73L31.7,268.15L32.09,253.21L32.19,283.68L32.39,265.76L32.48,304L32.97,236.48L33.27,286.07L33.36,304L34.15,268.15L34.25,300.41L34.34,298.02L34.44,300.41L34.54,269.34L34.93,265.76L35.32,304L35.42,295.63L36.1,304L36.2,290.85L36.89,304L36.98,301.61L37.08,283.68L37.57,280.1L37.67,304L37.77,269.34L38.06,299.82L38.55,289.06L38.65,282.49L38.75,281.29L38.84,299.22L39.92,195.25L40.02,229.31L40.12,272.93L40.51,262.17L41.09,304L41.19,278.9L41.49,274.12L41.97,304L42.07,265.76L42.56,243.65L42.95,304L43.05,263.97L43.15,202.42L43.34,287.27L43.64,270.54L43.74,304L44.62,231.7L44.71,243.65L44.81,304L45.4,226.92L45.6,287.27L45.69,304L46.67,280.1L46.77,292.65L46.97,304L47.06,287.87L47.16,295.63L47.26,241.26L47.85,304L48.04,290.85L48.14,300.41L48.33,298.62L48.43,302.8L48.53,206.01L49.22,304L49.31,288.46L49.41,304L50.29,191.67L50.39,282.49L50.49,281.29L50.59,260.38L50.98,304L51.07,269.34L51.37,198.84L51.76,249.63L51.86,263.97L51.96,253.21L52.25,297.43L52.35,304L52.74,304L52.84,286.07L52.93,238.87L53.32,304L53.52,275.32L53.62,304L53.91,255L54.11,280.1L54.21,304L54.5,304L54.6,294.44L55.38,304L55.48,304L55.77,256.8L56.06,260.38L56.16,304L56.65,304L56.75,299.82L57.04,285.48L57.14,304L57.24,283.68L57.34,217.96L57.63,304L57.92,304L58.02,277.71L58.22,281.29L58.31,304L58.51,286.07L59,304L59.1,304L59.39,276.51L59.78,293.24L59.88,301.61L59.98,304L60.08,286.67L60.17,274.12L60.66,304L60.76,299.22L61.15,262.17L61.45,304L61.54,290.26L61.64,295.04L61.94,304L62.42,94.87L62.52,304L62.82,101.44L63.21,231.7L63.3,251.42L63.7,304L63.99,284.88L64.09,249.63L64.19,253.21L64.28,290.85L64.48,304L64.67,265.76L64.77,171.35L65.36,304L65.56,282.49L65.65,304L66.34,278.9L66.44,298.02L66.53,304L66.83,304L66.93,295.04L67.32,304L67.41,243.65L68.2,304L68.29,304L68.39,278.9L69.08,286.07L69.18,304L69.27,266.95L69.86,294.44L69.96,296.83L70.35,268.15L70.55,285.48L70.64,297.43L70.84,304L71.43,281.29L71.52,302.21L71.72,293.24L71.82,304L72.21,302.8L72.31,304L72.5,296.83L72.7,301.01L72.8,262.17L73.29,304L73.38,289.66L73.48,253.21L73.77,299.22L73.97,238.87L74.26,275.32L74.36,293.84L74.56,304L74.65,236.48L74.75,209L75.14,298.02L75.34,247.83L75.44,226.92L75.83,211.98L75.93,270.54L76.02,258.59L76.12,188.08L77,302.21L77.1,294.44L77.39,283.68L77.49,304L77.59,209L77.98,293.84L78.37,276.51L78.47,266.95L78.86,229.31L79.25,255L79.35,291.45L79.64,299.82L79.74,217.96L80.04,298.02L80.13,302.8L80.33,304L80.53,296.23L80.82,301.01L80.92,301.01L81.6,283.68L81.7,299.22L81.8,296.23L81.99,304L82.29,297.43L82.38,304L82.97,271.73L83.17,293.84L83.27,171.35L83.36,167.17L83.46,296.83L83.66,304L83.75,280.1L83.85,247.83L83.95,214.97L84.05,268.15L84.44,255L84.54,302.8L84.63,238.87L85.32,276.51L85.42,266.95L85.52,238.87L85.81,304L86.1,283.68L86.2,304L86.4,302.8L86.49,292.05L86.79,304L86.89,265.76L87.08,296.23L87.18,243.65L87.77,304L88.06,293.24L88.16,256.8L88.55,238.87L88.94,304L89.04,277.71L89.53,304L89.72,268.15L89.82,269.34L89.92,304L90.11,183.9L90.21,255L90.31,137.29L90.51,94.87L90.7,226.92L91.09,179.72L91.19,183.9L91.48,268.15L91.97,217.96L92.07,198.84L92.27,157.61L92.46,223.93L92.76,198.84L92.85,202.42L93.05,206.01L93.15,243.65L93.25,263.97L93.64,214.97L93.73,202.42L94.52,125.94L94.61,214.97L94.71,206.01L94.81,88.3L95.5,302.8L95.69,278.9L95.79,241.26L96.28,238.87L96.47,299.22L96.57,286.67L96.67,292.65L96.96,277.71L97.35,304L97.45,301.01L97.55,299.82L97.65,302.21L97.94,294.44L98.04,278.9L98.33,291.45L98.72,195.25L98.82,209L98.92,260.38L99.12,223.93L99.51,302.8L99.61,231.7L99.9,302.8L100.09,157.61L100.39,275.32L100.49,277.71L100.68,286.67L100.78,220.95L100.88,202.42L100.97,288.46L101.27,234.09L101.37,302.8L101.46,304L101.56,262.17L101.76,304L102.15,236.48L102.25,241.26L102.34,274.12L102.74,304L102.93,243.65L103.03,280.1L103.13,299.22L103.32,280.1L103.42,304L103.52,304L103.62,243.65L103.81,229.31L104.01,270.54L104.11,256.8L104.2,258.59L104.79,229.31L105.08,304L105.18,302.8L105.38,217.96L105.57,304L105.77,301.61L105.87,304L106.16,299.82L106.26,292.65L106.85,247.83L106.94,304L107.04,249.63L107.14,304L108.02,209L108.12,243.65L108.31,231.7L108.41,277.71L108.61,302.21L108.9,220.95L109.1,298.62L109.19,295.63L109.39,301.01L109.59,231.7L109.68,276.51L109.78,302.8L109.88,304L109.98,299.22L110.07,283.68L110.47,191.67L110.66,304L110.76,294.44L110.86,275.32L111.44,304L111.64,298.02L111.74,298.02L112.03,277.71L112.32,304L112.42,296.23L112.52,299.82L112.72,286.07L112.91,304L113.01,269.34L113.3,142.67L113.5,277.71L113.6,266.95L113.99,211.98L114.28,304L114.38,289.66L114.48,304L114.77,283.68L115.06,296.23L115.16,304L115.36,304L115.46,283.68L115.55,304L115.75,198.84L115.85,167.17L116.63,243.65L116.73,231.7L116.83,236.48L116.92,188.08L118.2,293.24L118.39,272.93L118.49,211.98L118.78,265.76L119.08,195.25L119.17,191.67L119.37,188.08L119.76,249.63L119.86,217.96L119.96,195.25L120.54,226.92L120.64,214.97L120.74,171.35L121.62,296.83L121.72,278.9L121.82,234.09L122.11,292.65L122.5,246.04L122.6,299.22L122.89,183.9L123.38,231.7L123.48,241.26L123.77,226.92L123.97,271.73L124.16,256.8L124.26,246.04L124.36,292.65L124.95,281.29L125.04,253.21L125.14,249.63L125.24,209L125.44,188.08L125.73,298.02L126.02,247.83L126.12,229.31L126.32,217.96L126.41,231.7L126.51,286.67L126.81,206.01L126.9,236.48L127,296.23L127.88,214.97L127.98,217.96L128.27,271.73L128.47,214.97L128.66,241.26L128.76,220.95L128.96,217.96L129.06,304L129.55,255L129.64,229.31L130.23,295.04L130.33,198.84L130.43,260.38L131.11,251.42L131.21,256.8L131.99,152.83L132.09,253.21L132.38,157.61L132.68,260.38L132.77,269.34L132.87,268.15L132.97,229.31L133.17,280.1L133.75,258.59L133.85,255L134.05,263.97L134.14,282.49L134.44,223.93L134.93,253.21L135.02,251.42L135.42,283.68L135.81,195.25L135.91,214.97L136.2,211.98L136.49,302.8L136.59,256.8L136.69,223.93L136.79,276.51L137.27,175.54L137.47,243.65L137.57,284.88L137.86,253.21L138.06,286.67L138.16,299.82L138.55,263.97L138.84,302.8L138.94,304L139.04,301.01L139.13,275.32L139.43,255L139.53,304L139.92,302.21L140.01,301.61L140.7,243.65L140.8,281.29L140.9,280.1L140.99,289.06L141.09,223.93L141.29,266.95L141.87,260.38L141.97,247.83L142.17,286.67L142.26,246.04L142.75,272.93L142.85,226.92L143.15,211.98L143.44,276.51L143.63,274.12L143.73,202.42L143.93,289.66L144.12,179.72L144.42,278.9L144.52,175.54L145,277.71L145.3,236.48L145.4,214.97L145.69,282.49L146.08,188.08L146.18,251.42L146.28,214.97L146.47,268.15L147.06,243.65L147.16,223.93L147.25,258.59L147.55,217.96L147.84,256.8L147.94,142.67L148.62,278.9L148.72,236.48L148.82,241.26L148.92,211.98L149.11,268.15L149.41,251.42L149.51,285.48L149.6,287.87L149.7,241.26L149.8,236.48L149.9,269.34L149.99,281.29L150.29,249.63L150.39,271.73L150.48,246.04L150.68,304L150.78,253.21L150.88,234.09L151.66,304L151.76,304L151.95,226.92L152.24,234.09L152.34,263.97L153.03,272.93L153.13,229.31L153.22,269.34L153.42,198.84L153.52,284.88L153.61,285.48L153.91,294.44L154.2,226.92L154.4,258.59L154.5,260.38L154.59,287.27L154.69,231.7L155.08,262.17L155.18,234.09L155.28,293.24L155.96,265.76L156.06,249.63L156.16,283.68L156.45,223.93L156.84,262.17L156.94,281.29L157.14,262.17L157.24,298.62L157.43,270.54L157.53,296.23L158.12,246.04L158.21,296.83L158.31,276.51L158.41,276.51L158.51,284.88L158.8,265.76L158.9,217.96L159.49,296.83L159.58,195.25L160.37,295.04L160.46,253.21L160.56,179.72L161.15,276.51L161.25,234.09L161.64,278.9L161.83,202.42L161.93,249.63L162.03,209L162.71,296.23L162.81,256.8L162.91,243.65L163.3,272.93L163.79,175.54L163.89,231.7L163.99,229.31L164.08,162.39L164.48,302.21L164.77,220.95L164.87,183.9L164.96,188.08L165.06,243.65L165.26,294.44L165.65,217.96L165.75,211.98L165.94,223.93L166.04,179.72L166.14,290.26L166.24,302.21L166.33,152.83L166.43,275.32L166.92,16L167.02,148.05L167.12,188.08L167.51,301.01L167.9,283.68L168,234.09L168.1,162.39L168.68,268.15L168.78,255L168.98,296.83L169.07,236.48L169.17,152.83L169.27,94.87L169.66,220.95L169.76,249.63L169.86,266.95L170.15,211.98L170.25,171.35L171.13,280.1L171.23,231.7L171.42,275.32L171.52,188.08L171.91,293.24L172.21,202.42L172.3,195.25L172.5,206.01L172.6,202.42L172.69,175.54L172.79,256.8L173.48,238.87L173.57,269.34L173.77,275.32L174.06,202.42L174.36,241.26L174.46,263.97L174.75,281.29L175.04,214.97L175.14,243.65L175.24,258.59L175.43,234.09L175.53,289.06L175.63,283.68L175.73,295.63L176.61,183.9L176.71,195.25L176.8,271.73L177.2,188.08L177.39,286.67L177.59,209L177.68,271.73L178.27,286.07L178.47,188.08L178.56,226.92L178.66,281.29L179.25,198.84L179.35,275.32L179.45,263.97L179.64,206.01L179.84,271.73L180.23,243.65L180.33,238.87L180.52,266.95L180.62,206.01L180.82,142.67L181.11,234.09L181.21,282.49L181.3,152.83L181.99,211.98L182.09,198.84L182.77,290.26L182.87,265.76L182.97,211.98L183.16,198.84L183.85,304L183.95,255L184.14,296.23L184.53,246.04L184.73,263.97L184.83,283.68L185.22,238.87L185.32,272.93L185.41,298.62L185.9,202.42L186,301.01L186.2,269.34L186.29,280.1L186.39,289.66L186.49,223.93L186.78,198.84L186.98,302.21L187.08,243.65L187.18,220.95L187.47,195.25L187.96,301.61L188.06,270.54L188.55,229.31L188.94,231.7L189.03,238.87L189.13,229.31L189.33,251.42L189.43,247.83L189.52,272.93L190.21,223.93L190.31,276.51L190.7,304L190.89,262.17L190.99,274.12L191.09,275.32L191.28,271.73L192.17,304L192.26,304L192.75,304L192.85,301.61L193.05,304L193.63,281.29L193.73,304L194.32,304L194.42,302.8L194.61,296.23L194.71,304L195.1,304L195.2,304L196.08,304L196.18,300.41L196.37,304L196.86,286.07L196.96,304L197.35,265.76L197.45,236.48L198.04,304L198.23,275.32L198.33,214.97L199.11,304L199.21,274.12L199.41,291.45L199.5,202.42L200.38,304L200.48,298.62L200.58,300.41L200.87,295.04L200.97,249.63L201.46,298.02L201.66,292.05L201.75,251.42L201.95,246.04L202.05,277.71L202.24,275.32L202.34,211.98L202.73,298.02L203.12,280.1L203.22,268.15L203.42,249.63L203.52,272.93L203.81,251.42L203.91,268.15L204,234.09L204.88,304L204.98,304L208.51,304L208.6,276.51L209.29,304L209.39,299.22L209.48,285.48L210.27,304L210.36,241.26L210.85,304L211.05,231.7L211.15,258.59L211.54,243.65L211.83,288.46L211.93,263.97L212.03,226.92L212.52,304L212.61,249.63L212.71,274.12L213.01,293.84L213.1,268.15L213.5,277.71L213.59,276.51L213.98,241.26L214.18,289.66L214.28,300.41L214.77,281.29L214.87,304L214.96,304L215.06,304L215.35,294.44L215.75,302.8L215.84,304L216.63,304L216.72,295.63L216.82,276.51L216.92,304L217.41,304L217.51,304L218.19,304L218.29,299.82L219.07,304L219.17,304L219.37,287.87L219.86,304L219.95,304L220.15,275.32L220.64,304L220.74,304L221.62,304L221.71,263.97L221.91,269.34L222.5,202.42L222.59,246.04L222.89,214.97L223.48,304L223.57,229.31L224.06,304L224.45,262.17L224.55,183.9L224.75,211.98L224.85,101.44L226.02,304L226.12,304L226.51,304L226.61,157.61L227.49,304L227.58,304L228.56,304L228.66,211.98L229.44,304L229.54,304L231.4,304L231.5,275.32L231.6,251.42L231.69,304L232.09,304L232.18,304L232.57,238.87L232.87,304L232.97,304L233.36,304L233.46,171.35L234.04,304L234.24,302.8L234.34,304L237.47,304L237.56,220.95L238.35,304L238.45,299.82L239.23,304L239.33,304L239.52,302.8L239.91,304L240.01,295.04L240.79,304L240.89,304L241.97,304L242.07,275.32L242.46,249.63L242.85,304L242.95,304L243.24,263.97L243.63,304L243.73,304L244.02,179.72L244.51,243.65L244.61,274.12L244.81,278.9L244.9,266.95L245,251.42L245.1,294.44L245.2,231.7L245.69,277.71L245.78,258.59L245.88,229.31L246.27,301.61L246.37,278.9L246.47,304L247.06,289.06L247.25,301.01L247.35,304L247.54,294.44L247.64,304L247.74,236.48L248.72,304L248.82,304L249.7,304L249.8,198.84L250.58,304L250.68,304L250.97,283.68L251.36,301.61L251.46,301.61L251.56,299.82L251.65,304L251.75,304L251.85,234.09L251.95,131.92L252.05,304L252.53,137.29L252.63,304L254.49,304L254.59,281.29L254.79,271.73L255.47,304L255.57,304L255.76,304L255.86,292.05L256.64,304L256.74,304L257.92,304L258.01,266.95L258.8,304L258.89,304L259.48,304L259.58,299.82L259.97,295.63L260.36,304L260.46,304L261.54,304L261.63,268.15L262.03,266.95L262.32,304L262.42,293.24L262.51,304L262.91,292.05L263.3,296.83L263.4,304L264.08,304L264.18,214.97L265.06,304L265.16,304L272.4,304L272.5,301.61L272.59,286.67L272.69,304L273.18,304L273.28,304L274.26,304L274.35,283.68L274.75,304L274.84,262.17L274.94,247.83L275.53,304L275.72,286.67L275.82,304L276.02,304L276.12,299.82L276.41,288.46L276.6,304L276.7,284.88L277.39,304L277.49,302.8L277.58,304L277.88,304L277.97,302.8L278.76,304L278.85,304L278.95,246.04L279.64,280.1L279.74,304L279.93,304L280.03,293.84L280.22,304L280.32,281.29L280.62,304L280.71,304L280.91,292.05L281.4,304L281.5,304L281.89,304L281.99,278.9L282.48,260.38L282.77,304L282.87,304L283.06,300.41L283.16,280.1L283.94,304L284.04,304L284.14,274.12L284.73,304L284.82,304L285.02,278.9L285.41,304L285.51,304L286,304L286.1,278.9L286.88,304L286.98,304L287.07,238.87L287.66,304L287.76,295.04L288.35,304L288.44,281.29L289.32,304L289.42,304L290.2,304L290.3,298.62L291.09,304L291.18,304L291.87,304L291.97,229.31L292.65,304L292.75,285.48L292.85,304L293.63,231.7L293.73,281.29L293.92,287.27L294.02,157.61L294.8,304L294.9,304L295.19,304L295.29,302.21L295.68,304L295.78,266.95L296.56,304L296.66,299.22L297.45,304L297.54,304L302.44,304L302.53,280.1L303.32,304L303.41,304L303.61,304L303.71,277.71L304.29,304L304.49,302.21L304.59,249.63L305.37,304L305.47,304L305.57,302.21L306.15,304L306.25,274.12L307.03,304L307.13,304L312.12,304L312.22,223.93L312.9,304L313,301.01L313.1,275.32L313.59,304L313.69,296.23L313.79,191.67L314.47,304L314.57,302.21L314.67,304L314.96,304L315.06,301.01L315.25,304L315.35,211.98L315.74,304L315.84,301.01L316.62,304L316.72,299.22L317.21,304L317.31,280.1L318.09,304L318.19,298.02L318.48,304L318.58,260.38L319.26,304L319.36,298.02L319.46,304L319.75,304L319.85,286.07L320.73,304L320.83,293.84L321.12,304L321.22,167.17L322,304L322.1,302.8L322.2,304L322.3,288.46L323.08,304L323.18,304L323.96,206.01L324.06,292.65L324.84,304L324.94,241.26L325.72,304L325.82,304L326.31,304L326.41,293.84L326.6,289.66L327.19,304L327.29,304L327.87,304L327.97,287.27L328.66,304L328.76,226.92L329.54,304L329.64,304L330.32,294.44L330.42,302.21L330.52,302.8L331.3,304L331.4,304L331.59,263.97L332.08,304L332.18,304L333.65,304L333.75,263.97L334.53,304L334.63,304L334.92,304L335.02,295.04L335.21,283.68L335.8,304L335.9,292.05L336.68,304L336.78,298.62L337.56,304L337.66,304L338.34,300.41L338.44,304L338.64,302.8L339.13,304L339.22,304L340.3,304L340.4,300.41L341.18,304L341.28,302.8L341.38,262.17L341.57,304L341.96,304L342.06,304L342.16,268.15L342.75,286.07L342.84,304L343.82,304L343.92,206.01L344.7,304L344.8,304L345.39,304L345.49,271.73L346.27,304L346.37,304L347.05,304L347.15,286.07L347.83,304L347.93,299.22L348.03,270.54L348.81,304L348.91,288.46L349.3,281.29L349.69,304L349.79,290.85L350.38,304L350.48,282.49L351.16,304L351.26,274.12L352.04,304L352.14,304L352.34,293.24L352.82,297.43L352.92,183.9L353.61,304L353.71,287.87L353.8,304L354.68,304L354.78,299.22L355.56,304L355.66,304L357.62,304L357.72,275.32L358.5,304L358.6,304L361.73,304L361.83,302.8L362.61,304L362.71,304L367.5,304L367.6,292.05L368.38,304L368.48,304L371.12,304L371.22,283.68L371.61,258.59L372,304L372.1,304L372.69,304L372.78,281.29L372.98,266.95L373.57,304L373.67,175.54L374.45,304L374.55,271.73L375.04,304L375.13,220.95L375.92,304L376.01,304L376.41,304L376.5,274.12L377.29,304L377.38,304L378.46,304L378.56,302.21L379.34,304L379.44,304L379.73,270.54L380.12,304L380.22,304L380.51,304L380.61,296.23L381.4,304L381.49,304L381.79,304L381.88,274.12L382.08,304L382.28,246.04L382.37,183.9L382.86,162.39L383.25,304L383.35,301.01L384.23,304L384.33,304L390.3,304L390.4,260.38L391.18,304L391.28,304L391.77,304L391.86,301.61L392.65,304L392.75,304L393.92,304L394.02,255L394.8,304L394.9,304L401.45,304L401.55,297.43L402.43,304L402.53,304L406.35,304L406.44,302.21L406.54,288.46L406.64,304L407.13,304L407.23,304L408.89,304L408.99,296.83L409.77,304L409.87,304L410.06,304L410.16,260.38L410.94,304L411.04,304L411.63,304L411.73,291.45L412.51,304L412.61,304L412.8,304L412.9,289.06L413.68,304L413.78,304L414.56,304L414.66,262.17L415.44,304L415.54,304L416.03,304L416.13,302.8L416.23,300.41L416.33,304L416.81,304L416.91,304L417.5,246.04L417.6,304L417.7,304L418.67,304L418.77,249.63L419.55,304L419.65,304L420.34,304L420.43,275.32L421.12,304L421.22,302.21L421.32,304L425.13,304L425.23,283.68L426.01,304L426.11,304L426.4,302.8L426.79,304L426.89,304L426.99,301.61L427.58,304L427.68,304L429.83,304L429.93,302.21L430.71,304L430.81,304L431.59,304L431.69,283.68L432.47,304L432.57,304L432.76,304L432.86,236.48L433.64,304L433.74,304L434.82,304L434.92,295.04L435.01,283.68L435.11,304L435.5,304L435.6,304L438.73,304L438.83,293.24L439.03,270.54L439.12,304L439.22,304L439.32,304L440.69,304L440.79,183.9L441.57,304L441.67,287.27L442.45,304L442.55,304L443.04,304L443.13,297.43L443.92,304L444.02,296.83L444.41,293.84L444.5,304L444.6,266.95L445.39,304L445.48,304L445.68,300.41L446.17,304L446.27,304L446.75,304L446.85,300.41L446.95,304L447.05,293.84L447.15,243.65L447.93,304L448.03,302.21L448.12,265.76L448.22,304L448.71,304L448.81,304L449.2,304L449.3,297.43L450.08,304L450.18,304L451.06,304L451.16,302.8L451.94,304L452.04,304L452.92,304L453.02,277.71L453.8,304L453.9,299.82L454.19,304L454.68,152.83L454.78,179.72L455.56,304L455.66,202.42L456.54,304L456.64,304L456.83,304L456.93,297.43L457.32,288.46L457.52,304L457.62,265.76L458.4,304L458.5,304L459.18,304L459.28,300.41L459.38,298.02L459.47,304L459.57,302.21L459.67,246.04L460.16,88.3L460.45,198.84L460.55,195.25L460.84,183.9L461.43,304L461.53,304L461.72,270.54L462.31,296.23L462.41,304L462.61,304L462.7,290.85L462.8,291.45L462.9,304L463.39,220.95L463.58,304L463.68,304L463.78,301.01L463.98,304L464.07,272.93L464.37,198.84L464.66,243.65L464.76,255L464.95,162.39L465.15,198.84L465.25,270.54L465.35,269.34L465.44,258.59L465.54,296.83L465.93,175.54L466.03,195.25L466.23,256.8L466.62,251.42L466.71,206.01L466.81,198.84L467.01,234.09L467.3,202.42L467.4,214.97L467.79,293.24L468.08,243.65L468.18,214.97L468.57,183.9L468.87,276.51L469.06,241.26L469.16,209L469.45,290.26L469.94,271.73L470.04,256.8L470.34,292.05L470.63,251.42L470.82,286.07L470.92,258.59L471.12,251.42L471.41,292.65L471.61,266.95L471.71,258.59L472,299.82L472.19,255L472.59,289.66L472.68,270.54L473.17,246.04L473.27,293.24L473.37,236.48L473.66,290.26L474.05,243.65L474.15,238.87L474.25,214.97L474.44,281.29L474.74,275.32L474.84,272.93L475.23,251.42L475.33,271.73L475.42,296.23L475.52,246.04L475.62,301.61L476.11,280.1L476.21,286.67L476.3,231.7L476.99,258.59L477.09,255L477.28,298.02L477.58,249.63L477.67,287.87L477.77,241.26L478.16,304L478.55,249.63L478.65,262.17L478.95,281.29L479.04,247.83L479.14,231.7L479.34,220.95L479.43,238.87L479.53,285.48L479.83,304L480.32,301.01L480.41,271.73L480.61,263.97L480.8,304L481,263.97L481.1,243.65L481.88,304L481.98,295.63L482.37,304L482.76,301.61L482.86,302.8L483.05,304L483.15,292.65L483.54,304L483.94,302.21L484.03,304L484.33,304L484.42,298.02L485.11,304L485.21,301.61L485.31,302.21L485.5,299.22L485.6,304L485.99,302.21L486.09,301.01L486.28,294.44L486.38,304L486.68,304L486.77,234.09L487.26,220.95L487.46,282.49L487.56,260.38L487.65,256.8L487.85,241.26L487.95,280.1L488.44,195.25L488.73,223.93L488.83,296.83L489.02,249.63L489.51,263.97L489.61,289.66L490.1,211.98L490.49,253.21L490.59,289.66L490.69,238.87L490.78,304L491.27,243.65L491.37,276.51L491.47,281.29L491.57,251.42L491.67,251.42L491.86,260.38L491.96,209L492.06,234.09L492.15,304L492.45,167.17L492.84,243.65L492.94,276.51L493.03,274.12L493.13,238.87L493.43,211.98L493.52,251.42L493.62,179.72L493.92,296.23L494.21,243.65L494.31,274.12L494.4,300.41L494.7,175.54L494.8,217.96L494.89,206.01L494.99,229.31L495.19,148.05L495.29,113.99L495.58,282.49L496.07,195.25L496.17,179.72L496.66,113.99L496.95,275.32L497.05,223.93L497.24,81.13L497.34,231.7L497.44,274.12L497.54,183.9L498.03,223.93L498.12,234.09L498.51,175.54L498.71,220.95L498.81,262.17L499,286.07L499.39,220.95L499.49,255L499.59,287.87L500.08,175.54L500.18,195.25L500.28,226.92L500.37,251.42L500.67,243.65L500.76,131.92L500.86,81.13L501.06,236.48L501.25,211.98L501.35,260.38L501.55,148.05L502.04,236.48L502.13,268.15L502.43,304L502.82,263.97L502.92,282.49L503.02,179.72L503.11,274.12L503.8,256.8L503.9,251.42L504.29,282.49L504.68,202.42L504.78,211.98L505.07,295.04L505.56,262.17L505.66,236.48L505.75,231.7L505.85,297.43L506.44,223.93L506.73,243.65L506.83,263.97L507.03,260.38L507.12,272.93L507.22,269.34L507.32,280.1L507.42,278.9L507.52,299.22L507.61,296.83L507.71,262.17L508.2,304L508.59,302.21L508.69,293.24L508.98,302.8L509.08,291.45L509.28,295.04L509.37,253.21L509.57,217.96L509.77,295.04L510.06,255L510.16,246.04L510.45,238.87L510.74,299.82L510.94,283.68L511.04,275.32L511.33,266.95L511.82,304L511.92,288.46L512.02,299.22L512.21,281.29L512.31,249.63L512.41,234.09L512.6,299.22L512.8,258.59L512.9,282.49L513.39,266.95L513.68,304L513.78,304L513.97,234.09L514.56,282.49L514.66,302.8L514.85,304L514.95,275.32L515.34,304L515.44,281.29L515.54,276.51L515.64,293.84L516.03,251.42L516.13,246.04L516.22,302.8L516.81,292.65L516.91,223.93L517.2,280.1L517.69,270.54L517.79,255L517.89,268.15L518.28,231.7L518.38,255L518.47,241.26L518.57,238.87L518.67,209L518.77,304L519.06,183.9L519.45,265.76L519.55,229.31L519.94,171.35L520.24,299.22L520.33,280.1L520.43,292.65L520.63,304L520.72,268.15L520.82,220.95L521.12,188.08L522.09,304L522.19,295.04L522.29,293.84L522.58,236.48L522.88,296.23L522.98,304L524.05,231.7L524.15,293.84L524.83,289.66L524.93,304L525.03,291.45L525.42,268.15L525.62,304L525.81,300.41L525.91,304L526.6,268.15L526.79,282.49L526.89,292.65L527.28,304L527.38,282.49L527.48,304L527.67,304L527.77,286.07L528.36,304L528.55,291.45L528.65,243.65L528.94,304L529.63,301.61L529.73,290.26L529.82,292.65L529.92,260.38L530.22,251.42L530.8,304L530.9,289.06L531.1,289.66L531.29,238.87L531.49,263.97L531.59,274.12L532.37,171.35L532.47,183.9L532.56,231.7L532.96,234.09L533.44,108.02L533.54,142.67L533.74,253.21L534.23,251.42L534.33,191.67L534.62,113.99L535.21,292.65L535.3,231.7L535.4,131.92L535.99,241.26L536.09,271.73L536.77,304L536.87,298.62L536.97,288.46L537.55,302.8L537.85,195.25L537.95,262.17L538.04,304L538.43,249.63L538.63,262.17L538.73,246.04L538.92,209L539.61,301.61L539.71,304L540,191.67" style="vector-effect: none; fill: none; stroke: rgb(99, 110, 250); stroke-opacity: 1; stroke-width: 2px; opacity: 1;"/></g><g class="points"/><g class="text"/></g></g></g><g class="overplot"/><path class="xlines-above crisp" d="M0,0" style="fill: none;"/><path class="ylines-above crisp" d="M0,0" style="fill: none;"/><g class="overlines-above"/><g class="xaxislayer-above"><g class="xtick"><text text-anchor="middle" x="0" y="433" transform="translate(126.87,0)" style="font-family: 'Open Sans', verdana, arial, sans-serif; font-size: 12px; fill: rgb(42, 63, 95); fill-opacity: 1; white-space: pre; opacity: 1;"><tspan class="line" dy="0em" x="0" y="433">15:00</tspan><tspan class="line" dy="1.3em" x="0" y="433">Jul 18, 2022</tspan></text></g><g class="xtick"><text text-anchor="middle" x="0" y="433" style="font-family: 'Open Sans', verdana, arial, sans-serif; font-size: 12px; fill: rgb(42, 63, 95); fill-opacity: 1; white-space: pre; opacity: 1;" transform="translate(197.31,0)">18:00</text></g><g class="xtick"><text text-anchor="middle" x="0" y="433" style="font-family: 'Open Sans', verdana, arial, sans-serif; font-size: 12px; fill: rgb(42, 63, 95); fill-opacity: 1; white-space: pre; opacity: 1;" transform="translate(267.76,0)">21:00</text></g><g class="xtick"><text text-anchor="middle" x="0" y="433" style="font-family: 'Open Sans', verdana, arial, sans-serif; font-size: 12px; fill: rgb(42, 63, 95); fill-opacity: 1; white-space: pre; opacity: 1;" transform="translate(338.21,0)"><tspan class="line" dy="0em" x="0" y="433">00:00</tspan><tspan class="line" dy="1.3em" x="0" y="433">Jul 19, 2022</tspan></text></g><g class="xtick"><text text-anchor="middle" x="0" y="433" style="font-family: 'Open Sans', verdana, arial, sans-serif; font-size: 12px; fill: rgb(42, 63, 95); fill-opacity: 1; white-space: pre; opacity: 1;" transform="translate(408.66,0)">03:00</text></g><g class="xtick"><text text-anchor="middle" x="0" y="433" style="font-family: 'Open Sans', verdana, arial, sans-serif; font-size: 12px; fill: rgb(42, 63, 95); fill-opacity: 1; white-space: pre; opacity: 1;" transform="translate(479.1,0)">06:00</text></g><g class="xtick"><text text-anchor="middle" x="0" y="433" style="font-family: 'Open Sans', verdana, arial, sans-serif; font-size: 12px; fill: rgb(42, 63, 95); fill-opacity: 1; white-space: pre; opacity: 1;" transform="translate(549.55,0)">09:00</text></g><g class="xtick"><text text-anchor="middle" x="0" y="433" style="font-family: 'Open Sans', verdana, arial, sans-serif; font-size: 12px; fill: rgb(42, 63, 95); fill-opacity: 1; white-space: pre; opacity: 1;" transform="translate(620,0)">12:00</text></g></g><g class="yaxislayer-above"><g class="ytick"><text text-anchor="end" x="79" y="4.199999999999999" transform="translate(0,404)" style="font-family: 'Open Sans', verdana, arial, sans-serif; font-size: 12px; fill: rgb(42, 63, 95); fill-opacity: 1; white-space: pre; opacity: 1;">0</text></g><g class="ytick"><text text-anchor="end" x="79" y="4.199999999999999" style="font-family: 'Open Sans', verdana, arial, sans-serif; font-size: 12px; fill: rgb(42, 63, 95); fill-opacity: 1; white-space: pre; opacity: 1;" transform="translate(0,344.25)">100</text></g><g class="ytick"><text text-anchor="end" x="79" y="4.199999999999999" style="font-family: 'Open Sans', verdana, arial, sans-serif; font-size: 12px; fill: rgb(42, 63, 95); fill-opacity: 1; white-space: pre; opacity: 1;" transform="translate(0,284.5)">200</text></g><g class="ytick"><text text-anchor="end" x="79" y="4.199999999999999" style="font-family: 'Open Sans', verdana, arial, sans-serif; font-size: 12px; fill: rgb(42, 63, 95); fill-opacity: 1; white-space: pre; opacity: 1;" transform="translate(0,224.75)">300</text></g><g class="ytick"><text text-anchor="end" x="79" y="4.199999999999999" style="font-family: 'Open Sans', verdana, arial, sans-serif; font-size: 12px; fill: rgb(42, 63, 95); fill-opacity: 1; white-space: pre; opacity: 1;" transform="translate(0,165)">400</text></g><g class="ytick"><text text-anchor="end" x="79" y="4.199999999999999" style="font-family: 'Open Sans', verdana, arial, sans-serif; font-size: 12px; fill: rgb(42, 63, 95); fill-opacity: 1; white-space: pre; opacity: 1;" transform="translate(0,105.24)">500</text></g></g><g class="overaxes-above"/></g></g><g class="polarlayer"/><g class="smithlayer"/><g class="ternarylayer"/><g class="geolayer"/><g class="funnelarealayer"/><g class="pielayer"/><g class="iciclelayer"/><g class="treemaplayer"/><g class="sunburstlayer"/><g class="glimages"/><defs id="topdefs-005178"><g class="clips"/></defs><g class="layer-above"><g class="imagelayer"/><g class="shapelayer"/></g><g class="infolayer"><g class="g-gtitle"><text class="gtitle" x="35" y="50" text-anchor="start" dy="0em" style="font-family: 'Open Sans', verdana, arial, sans-serif; font-size: 17px; fill: rgb(42, 63, 95); opacity: 1; font-weight: normal; white-space: pre;">Actigraphy data weekly activity day 1</text></g><g class="g-xtitle"><text class="xtitle" x="350" y="475.909375" text-anchor="middle" style="font-family: 'Open Sans', verdana, arial, sans-serif; font-size: 14px; fill: rgb(42, 63, 95); opacity: 1; font-weight: normal; white-space: pre;">Date time</text></g><g class="g-ytitle"><text class="ytitle" transform="rotate(-90,31.809375000000003,260)" x="31.809375000000003" y="260" text-anchor="middle" style="font-family: 'Open Sans', verdana, arial, sans-serif; font-size: 14px; fill: rgb(42, 63, 95); opacity: 1; font-weight: normal; white-space: pre;">Counts/period</text></g></g></svg>